<svg width="512" height="512" viewBox="0 0 512 512" fill="none" xmlns="http://www.w3.org/2000/svg">
<rect width="512" height="512" fill="#EEEEEE"/>
<path d="M297.467 464.75C289.034 464.75 284.084 460.533 282.617 452.1C280.784 438.167 279.867 424.967 279.867 412.5C278.767 384.267 277.851 354.933 277.117 324.5C276.751 293.7 276.567 271.333 276.567 257.4C268.501 261.067 262.084 266.2 257.317 272.8C252.917 279.033 248.701 287.1 244.667 297C238.067 314.967 234.767 332.75 234.767 350.35V364.1C234.767 366.3 234.584 373.083 234.217 384.45C233.851 395.817 232.751 408.283 230.917 421.85C228.717 440.183 219.551 453.933 203.417 463.1C200.851 464.567 197.551 465.3 193.517 465.3C188.751 465.3 184.717 464.2 181.417 462C178.484 459.433 177.567 455.95 178.667 451.55C179.401 448.983 180.501 447.15 181.967 446.05C183.434 444.95 185.451 443.85 188.017 442.75C190.951 441.65 193.151 440.55 194.617 439.45C200.117 434.317 202.867 427.35 202.867 418.55L203.417 372.35C204.151 354.383 205.067 340.633 206.167 331.1C207.267 321.2 210.017 309.833 214.417 297C215.884 292.233 219.367 284.717 224.867 274.45C230.367 263.817 234.401 257.033 236.967 254.1C217.534 244.567 203.967 232.65 196.267 218.35C188.934 204.05 185.267 183.15 185.267 155.65C185.267 134.017 189.117 112.75 196.817 91.85C204.517 71.3166 217.167 58.3 234.767 52.8L258.967 44.55C262.267 43.0833 265.934 42.35 269.967 42.35C277.667 42.35 286.467 45.65 296.367 52.25C302.601 55.9166 305.717 61.9667 305.717 70.4C303.517 101.2 302.417 124.483 302.417 140.25V160.6V205.7V262.35C302.417 301.217 302.784 330.55 303.517 350.35C303.884 365.383 304.434 378.767 305.167 390.5C305.901 402.233 306.451 411.95 306.817 419.65L308.467 449.9V453.2C308.467 457.967 307.734 461.083 306.267 462.55C304.801 464.017 301.867 464.75 297.467 464.75ZM274.367 65.45C272.534 66.1833 268.317 67.65 261.717 69.85C255.484 72.05 249.984 74.6166 245.217 77.55C239.717 80.1166 234.584 85.6166 229.817 94.05C225.417 102.117 221.934 110.733 219.367 119.9C216.801 129.067 215.701 136.033 216.067 140.8L217.167 165C217.167 176.367 217.351 185.35 217.717 191.95C218.084 202.217 221.017 210.833 226.517 217.8C232.384 224.4 240.451 228.983 250.717 231.55C254.751 232.65 259.334 234.3 264.467 236.5C269.967 238.333 274.001 239.8 276.567 240.9L274.367 65.45Z" fill="#0F805D"/>
</svg>
