<svg width="33" height="32" viewBox="0 0 33 32" fill="none" xmlns="http://www.w3.org/2000/svg">
<path d="M25.8333 9.33329C25.8333 7.86663 24.6333 6.66663 23.1667 6.66663H19.1667V9.33329H23.1667V12.8666L18.5267 18.6666H13.8333V12H8.49999C5.55332 12 3.16666 14.3866 3.16666 17.3333V21.3333H5.83332C5.83332 23.5466 7.61999 25.3333 9.83332 25.3333C12.0467 25.3333 13.8333 23.5466 13.8333 21.3333H19.8067L25.8333 13.8V9.33329ZM5.83332 18.6666V17.3333C5.83332 15.8666 7.03332 14.6666 8.49999 14.6666H11.1667V18.6666H5.83332ZM9.83332 22.6666C9.09999 22.6666 8.49999 22.0666 8.49999 21.3333H11.1667C11.1667 22.0666 10.5667 22.6666 9.83332 22.6666Z" fill="#0F805D"/>
<path d="M7.16666 8H13.8333V10.6667H7.16666V8ZM25.8333 17.3333C23.62 17.3333 21.8333 19.12 21.8333 21.3333C21.8333 23.5467 23.62 25.3333 25.8333 25.3333C28.0467 25.3333 29.8333 23.5467 29.8333 21.3333C29.8333 19.12 28.0467 17.3333 25.8333 17.3333ZM25.8333 22.6667C25.1 22.6667 24.5 22.0667 24.5 21.3333C24.5 20.6 25.1 20 25.8333 20C26.5667 20 27.1667 20.6 27.1667 21.3333C27.1667 22.0667 26.5667 22.6667 25.8333 22.6667Z" fill="#0F805D"/>
</svg>
